<svg data-v-423bf9ae="" xmlns="http://www.w3.org/2000/svg" viewBox="0 0 460 90" class="iconLeft"><!----><!----><!----><g data-v-423bf9ae="" id="075f149d-dd8c-40f7-ac75-faa1441c83f1" fill="black" transform="matrix(3.705991230437749,0,0,3.705991230437749,109.42345160319095,18.594811837972454)"><path d="M9.66 1.05L6.26 1.05C6.26 1.05 6.33 3.42 6.36 5.08L4.09 5.08C4.13 3.40 4.24 1.05 4.24 1.05L0.84 1.05C0.84 1.05 0.94 4.42 0.94 5.95C0.94 8.06 0.88 10.79 0.88 10.79L4.12 10.79C4.12 9.38 4.09 8.02 4.07 6.87L6.36 6.87C6.34 8.78 6.30 10.79 6.30 10.79L9.53 10.79C9.53 9.00 9.49 7.29 9.49 5.99C9.49 4.45 9.66 1.05 9.66 1.05ZM15.65 2.95C12.81 2.95 11.06 4.48 11.06 6.97C11.06 9.42 12.81 11.05 15.65 11.05C18.52 11.05 20.24 9.42 20.24 6.97C20.24 4.48 18.52 2.95 15.65 2.95ZM14.34 6.92C14.34 5.71 14.64 5.00 15.58 5.00C16.63 5.00 16.95 6.02 16.95 7.04C16.95 8.05 16.72 8.95 15.67 8.95C14.73 8.95 14.34 8.11 14.34 6.92ZM27.06 10.79L30.46 10.79C30.44 9.90 30.37 8.09 30.37 5.74C30.37 4.07 29.51 2.95 27.66 2.95C26.19 2.95 25.31 3.61 24.95 4.51L24.99 3.21L21.73 3.21C21.74 3.82 21.74 4.42 21.74 4.94C21.74 7.73 21.64 10.79 21.64 10.79L25.00 10.79C24.96 9.87 24.91 8.18 24.91 7.01C24.91 6.01 25.07 5.04 25.98 5.04C26.88 5.04 27.13 5.82 27.13 7.01C27.13 8.22 27.08 9.91 27.06 10.79ZM40.63 3.21L37.24 3.21C37.28 4.13 37.35 5.82 37.35 6.99C37.35 7.99 37.24 8.96 36.40 8.96C35.55 8.96 35.38 8.19 35.38 6.99C35.38 5.78 35.43 4.09 35.45 3.21L32.16 3.21C32.20 4.10 32.14 6.69 32.14 8.02C32.14 10.01 33.14 11.05 34.75 11.05C36.23 11.05 36.97 10.39 37.32 9.49L37.45 10.79L40.68 10.79C40.59 10.08 40.53 9.58 40.53 9.06C40.53 6.27 40.63 3.21 40.63 3.21ZM52.68 5.50C53.16 5.03 53.66 4.35 53.66 3.63C53.66 1.65 52.44 1.05 49.15 1.05L45.82 1.05C45.82 1.05 45.92 4.42 45.92 5.95C45.92 8.06 45.86 10.79 45.86 10.79L49.11 10.79C52.36 10.79 54.52 10.00 54.52 7.76C54.52 6.41 53.75 5.80 52.68 5.50ZM50.86 3.95C50.86 4.40 50.71 4.86 50.48 5.26C49.84 5.26 49.07 5.35 49.07 5.35C49.07 5.35 49.07 3.86 49.10 3.08C50.12 3.08 50.86 3.11 50.86 3.95ZM49.08 8.83C49.08 8.09 49.07 7.53 49.07 6.89C50.30 6.78 51.24 6.83 51.24 7.85C51.24 8.90 49.98 8.95 49.08 8.83ZM64.26 3.21L60.87 3.21C60.91 4.13 60.98 5.82 60.98 6.99C60.98 7.99 60.87 8.96 60.03 8.96C59.18 8.96 59.01 8.19 59.01 6.99C59.01 5.78 59.07 4.09 59.08 3.21L55.79 3.21C55.83 4.10 55.78 6.69 55.78 8.02C55.78 10.01 56.77 11.05 58.38 11.05C59.86 11.05 60.61 10.39 60.96 9.49L61.08 10.79L64.32 10.79C64.22 10.08 64.16 9.58 64.16 9.06C64.16 6.27 64.26 3.21 64.26 3.21ZM65.67 7.01C65.67 9.51 67.09 11.05 69.16 11.05C70.59 11.05 71.36 10.09 71.61 9.32C71.61 9.55 71.65 10.54 71.65 10.79L75.00 10.79C75.00 10.79 74.77 9.52 74.75 7.88C74.73 6.97 74.73 5.94 74.73 4.94C74.73 2.79 74.87-0.97 74.87-0.97C73.30-0.88 71.32-0.97 71.32-0.97C71.32-0.97 71.48 2.39 71.53 4.51C71.16 3.61 70.29 2.95 69.12 2.95C67.05 2.95 65.67 4.54 65.67 7.01ZM69.05 7.01C69.05 5.82 69.40 5.04 70.34 5.04C71.39 5.04 71.74 6.01 71.74 7.01C71.74 8.04 71.39 8.99 70.34 8.99C69.40 8.99 69.05 8.22 69.05 7.01ZM76.26 7.01C76.26 9.51 77.67 11.05 79.74 11.05C81.17 11.05 81.94 10.09 82.19 9.32C82.19 9.55 82.24 10.54 82.24 10.79L85.58 10.79C85.58 10.79 85.36 9.52 85.33 7.88C85.32 6.97 85.32 5.94 85.32 4.94C85.32 2.79 85.46-0.97 85.46-0.97C83.89-0.88 81.90-0.97 81.90-0.97C81.90-0.97 82.07 2.39 82.11 4.51C81.75 3.61 80.88 2.95 79.70 2.95C77.63 2.95 76.26 4.54 76.26 7.01ZM79.63 7.01C79.63 5.82 79.98 5.04 80.92 5.04C81.97 5.04 82.32 6.01 82.32 7.01C82.32 8.04 81.97 8.99 80.92 8.99C79.98 8.99 79.63 8.22 79.63 7.01ZM92.09 3.21C92.30 5.82 92.05 7.22 91.62 8.40C91.62 3.75 86.70 2.95 86.70 2.95L86.00 6.27C86.00 6.27 89.10 6.87 89.10 9.56C89.10 12.15 86.81 13.24 83.41 13.24L84.13 15.22C90.01 15.22 94.49 10.14 94.49 3.21Z"></path></g><!----><g data-v-423bf9ae="" id="ab772774-865a-4cec-bf22-a06d01ea59be" transform="matrix(1.0282450812556003,0,0,1.0282450812556003,-4.40953713952257,-6.176136301497259)" stroke="none" fill="black"><path d="M60.089 37.105c.276.478.947.902 1.497.949l4.355.364c.55.046.769-.303.455-.758-2.17-3.169-5.301-5.357-9-6.567-.524-.171-.732.1-.457.578l3.15 5.434zM60.007 39.872l-4.194 3.621a1.017 1.017 0 00-.115 1.42l3.584 4.28c.354.423 1.088.804 1.638.85l7.687.642c.549.046 1.017-.269 1.029-.704.01-.264.014-.527.014-.788 0-3.247-.578-6.068-1.6-8.489-.214-.509-.859-.948-1.408-.994l-4.879-.407c-.553-.048-1.338.208-1.756.569zM68.533 51.719l-7.369-.615c-.551-.046-1.299.246-1.673.653L55.1 56.539c-.373.406-.431 1.109-.127 1.57l3.521 5.351c.304.461.996.872 1.546.918l4.89.408c.551.046 1.188-.322 1.411-.827 1.571-3.564 2.649-7.43 3.087-11.161a.975.975 0 00-.895-1.079zM64.393 65.882l-4.496-.377c-.549-.046-1.334.209-1.754.569l-3.52 3.031a1.013 1.013 0 00-.115 1.418l3.104 3.697c.354.422.695.77.76.774s.462-.274.867-.647c2.171-1.99 4.097-4.586 5.685-7.498.264-.486.017-.921-.531-.967zM45.376 69.105l-3.519-3.031c-.418-.36-1.204-.615-1.754-.569l-4.496.377c-.55.046-.794.481-.529.968 1.588 2.912 3.513 5.508 5.682 7.498.407.373.806.654.87.648s.404-.354.759-.775l3.102-3.697a1.015 1.015 0 00-.115-1.419zM52.546 56.732c.554 0 1.304-.33 1.677-.736l4.258-4.638a1.17 1.17 0 00.035-1.502l-3.826-4.567c-.354-.423-1.088-.767-1.642-.767h-6.096c-.552 0-1.288.343-1.642.767l-3.823 4.567a1.171 1.171 0 00.034 1.502l4.258 4.638c.374.406 1.124.736 1.676.736h5.091zM42.628 65.395l3.48 2.996c.418.36 1.206.652 1.758.652h4.268c.554 0 1.339-.292 1.759-.652l3.479-2.996a1.165 1.165 0 00.208-1.486l-3.515-5.34c-.305-.461-.998-.836-1.551-.836h-5.029c-.552 0-1.246.375-1.55.836l-3.515 5.34a1.168 1.168 0 00.208 1.486zM39.959 64.378c.55-.046 1.243-.457 1.546-.918l3.521-5.351c.304-.461.247-1.164-.126-1.57l-4.392-4.782c-.374-.407-1.123-.699-1.673-.653l-7.369.615a.976.976 0 00-.896 1.079c.437 3.731 1.515 7.599 3.087 11.161.223.506.861.873 1.412.827l4.89-.408zM53.426 70.809c-.354-.422-1.09-.766-1.643-.766h-3.566c-.552 0-1.288.344-1.643.766l-3.487 4.156c-.355.424-.283 1.032.182 1.331 2.1 1.353 4.366 2.134 6.731 2.134s4.632-.781 6.73-2.134c.465-.299.537-.907.183-1.331l-3.487-4.156zM40.923 39.329l4.102 3.54c.418.361 1.205.653 1.757.653h6.436c.554 0 1.339-.292 1.757-.653l4.104-3.54c.418-.361.531-1.041.256-1.519l-3.746-6.465c-.275-.478-.938-.958-1.482-1.049a24.934 24.934 0 00-8.209.001c-.545.091-1.207.571-1.484 1.049l-3.746 6.465c-.278.478-.164 1.157.255 1.518zM31.397 50.684l7.685-.642c.55-.046 1.284-.427 1.639-.85l3.583-4.28a1.019 1.019 0 00-.115-1.42l-4.196-3.621c-.418-.361-1.203-.616-1.753-.57l-4.877.407c-.55.046-1.196.485-1.41.994-1.021 2.421-1.6 5.242-1.6 8.489 0 .261.005.524.014.788.013.437.48.75 1.03.705zM34.059 38.417l4.354-.364c.55-.046 1.221-.471 1.498-.949l3.148-5.435c.277-.478.068-.749-.457-.577-3.699 1.209-6.83 3.397-9.001 6.567-.311.456-.092.805.458.758zM28.27 39.146c.27-.65.7-1.26 1.24-1.78.11-.69.38-1.37.8-1.97 1.13-1.66 2.5-3.13 4.07-4.38-1.22-1.75-2.75-4.2-4.6-4.89-2.24-.84-5.89.69-9.11 1.68-6.47 2-10.94 8.27-13.4 13.97-2.62 5.87-2.43 10.32-2.04 9.89-.08-.17 2.56-1.54 3.71-3.35 2.77-4.35 6.54-11.24 12.56-9.86 2.44.04 4.59.67 6.48 1.43.09-.25.19-.5.29-.74zM92.73 41.776c-2.461-5.7-6.932-11.97-13.4-13.97-3.221-.99-6.87-2.52-9.109-1.68-1.851.69-3.381 3.15-4.591 4.9a20.145 20.145 0 014.07 4.38c.409.59.68 1.271.79 1.96.539.52.97 1.14 1.24 1.8.1.24.199.48.278.72 1.9-.75 4.05-1.39 6.49-1.43 6.021-1.38 9.79 5.51 12.56 9.86 1.15 1.81 3.791 3.18 3.711 3.35.391.43.581-4.02-2.039-9.89zM33.09 71.316c-2.37 1.068-4.62 2.75-6.16 5.18-1.82 2.729-4.61 5.59-4.38 8.439.14 1.721 2.06 1.801 3.13 3.229 1.31 1.739 1.96 4.62 2.82 5.37 1.74 1.52 3.06-5.98 7.63-12.92a24.096 24.096 0 012.28-3c-.12-.102-.24-.211-.36-.32-1.79-1.648-3.46-3.648-4.96-5.978zM66.9 71.336c-1.5 2.32-3.16 4.32-4.961 5.96-.129.12-.25.22-.369.32.779.88 1.56 1.88 2.3 3.03 4.569 6.938 5.899 14.438 7.63 12.92.859-.75 1.51-3.642 2.82-5.371 1.068-1.439 2.988-1.521 3.13-3.239.229-2.84-2.562-5.71-4.38-8.431-1.541-2.429-3.791-4.119-6.17-5.189z"></path><path d="M67.561 68.286c.279-.521.42-1.091.449-1.649.45-.41.83-.9 1.08-1.471 1.7-3.859 2.852-8.02 3.32-12.02a3.929 3.929 0 00-.15-1.602c.221-.45.36-.94.37-1.47.011-.29.021-.59.021-.88 0-3.52-.619-6.77-1.84-9.65a4.423 4.423 0 00-1.279-1.69c-.03-.65-.25-1.3-.66-1.89-2.471-3.61-6.109-6.28-10.54-7.73-.41-.13-.819-.2-1.21-.2-.221 0-.43.03-.63.07-.07-.04-.13-.08-.2-.12a4.923 4.923 0 00-1.689-.65 28.458 28.458 0 00-4.601-.38c-1.53 0-3.08.13-4.6.38-.58.1-1.16.33-1.69.65-.07.04-.13.08-.2.12-.2-.04-.41-.07-.63-.07-.39 0-.8.07-1.21.21-4.43 1.44-8.07 4.11-10.54 7.72-.41.59-.63 1.24-.66 1.89a4.44 4.44 0 00-1.28 1.68c-1.22 2.89-1.84 6.14-1.84 9.66 0 .29.01.59.02.88.01.529.15 1.02.37 1.47-.16.52-.21 1.061-.15 1.602.47 4 1.62 8.158 3.32 12.02.25.57.63 1.061 1.08 1.471.03.561.17 1.129.45 1.649 1.82 3.319 3.93 6.11 6.29 8.271.72.659 1.31 1.061 1.88 1.26.28.391.62.74 1.03 1C44.33 80.546 50 82.426 50 82.426s5.67-1.88 8.359-3.609c.41-.26.75-.609 1.029-.989.58-.21 1.16-.61 1.881-1.271 2.361-2.161 4.471-4.952 6.292-8.271zm-7.651 6.8c-.5.471-.9.75-1.189.85l-.591.211-.36.5a1.704 1.704 0 01-.5.49c-2.358 1.521-4.81 2.289-7.27 2.289s-4.91-.77-7.27-2.289c-.18-.109-.34-.279-.5-.49l-.36-.5-.58-.211c-.3-.108-.7-.379-1.2-.85-2.2-2.02-4.18-4.63-5.89-7.76-.13-.23-.2-.5-.21-.78l-.04-.84-.63-.56c-.26-.23-.45-.5-.58-.78-1.62-3.69-2.72-7.65-3.16-11.45-.03-.26-.01-.529.07-.79l.23-.76-.35-.7c-.1-.21-.16-.43-.16-.65-.01-.28-.02-.55-.02-.82 0-3.25.57-6.24 1.68-8.88.14-.33.39-.65.72-.93l.66-.56.05-.86c.02-.29.13-.6.32-.87 2.22-3.24 5.51-5.64 9.51-6.95.21-.07.41-.11.59-.11.1 0 .18.02.27.04l.25.04.54.1.66-.43c.38-.25.78-.42 1.13-.48 1.41-.23 2.84-.35 4.27-.35 1.42 0 2.859.12 4.27.35.352.06.75.23 1.131.48l.66.43.539-.1.25-.04c.08-.02.17-.04.271-.04.18 0 .38.04.59.11 4 1.31 7.29 3.71 9.51 6.95.19.28.301.57.32.88l.05.86.66.55c.33.28.58.6.72.93 1.11 2.64 1.682 5.63 1.682 8.88 0 .27-.012.54-.021.82 0 .22-.061.44-.16.65l-.35.71.229.75c.08.261.102.53.07.79-.439 3.8-1.54 7.76-3.16 11.45-.13.28-.318.55-.58.78l-.63.56-.04.83c-.01.29-.08.56-.21.8-1.711 3.12-3.692 5.73-5.891 7.75zM43.44 24.236c.19.85.28 1.72.29 2.6.48-.23 1-.4 1.5-.49 1.59-.26 3.2-.39 4.77-.39 1.57 0 3.18.13 4.76.39.5.09 1.021.26 1.51.49.012-.87.11-1.74.291-2.6 1.399-1.13 2.26-2.72 2.26-4.7 0-1.58-.539-3.31-1.471-4.87-.658-5.19-7.22-8.43-7.22-8.43s-6.11 3.02-7.14 7.88c-1.13 1.7-1.81 3.66-1.81 5.42 0 1.98.86 3.57 2.26 4.7z"></path></g><!----></svg>