<?xml version="1.0" encoding="UTF-8" standalone="no"?>
<svg
   data-v-fde0c5aa=""
   viewBox="0 0 32 31.122858"
   class="iconLeft"
   version="1.1"
   id="svg5"
   sodipodi:docname="honulogo.svg"
   width="32"
   height="31.122858"
   inkscape:version="1.3.2 (091e20e, 2023-11-25, custom)"
   xmlns:inkscape="http://www.inkscape.org/namespaces/inkscape"
   xmlns:sodipodi="http://sodipodi.sourceforge.net/DTD/sodipodi-0.dtd"
   xmlns="http://www.w3.org/2000/svg"
   xmlns:svg="http://www.w3.org/2000/svg">
  <sodipodi:namedview
     id="namedview5"
     pagecolor="#ffffff"
     bordercolor="#000000"
     borderopacity="0.25"
     inkscape:showpageshadow="2"
     inkscape:pageopacity="0.0"
     inkscape:pagecheckerboard="0"
     inkscape:deskcolor="#d1d1d1"
     inkscape:zoom="3.1166667"
     inkscape:cx="12.834225"
     inkscape:cy="25.828877"
     inkscape:window-width="1920"
     inkscape:window-height="1191"
     inkscape:window-x="-9"
     inkscape:window-y="1071"
     inkscape:window-maximized="1"
     inkscape:current-layer="svg5" />
  <!---->
  <defs
     data-v-fde0c5aa=""
     id="defs2">
    <linearGradient
       data-v-fde0c5aa=""
       gradientTransform="rotate(25)"
       id="a580e0a0-161f-4388-b161-6bf6f2a4088f"
       x1="0"
       y1="0"
       x2="1"
       y2="0">
      <stop
         data-v-fde0c5aa=""
         offset="0"
         stop-color="#D0A070"
         stop-opacity="1"
         id="stop1"
         style="stop-color:#7089d0;stop-opacity:1;" />
      <stop
         data-v-fde0c5aa=""
         offset="100%"
         stop-color="#6BE371"
         stop-opacity="1"
         id="stop2" />
    </linearGradient>
  </defs>
  <defs
     data-v-fde0c5aa=""
     id="defs3">
    <!---->
  </defs>
  <defs
     data-v-fde0c5aa=""
     id="defs4">
    <!---->
  </defs>
  <g
     data-v-fde0c5aa=""
     id="673e2c66-50bf-4e42-b5aa-b72f872bbf85"
     stroke="none"
     fill="#ffffff"
     transform="matrix(0.35557692,0,0,0.35557692,-1.7787893,-2.2173777)"
     style="fill:#9bff16;fill-opacity:1">
    <path
       d="m 60.089,37.105 c 0.276,0.478 0.947,0.902 1.497,0.949 l 4.355,0.364 c 0.55,0.046 0.769,-0.303 0.455,-0.758 -2.17,-3.169 -5.301,-5.357 -9,-6.567 -0.524,-0.171 -0.732,0.1 -0.457,0.578 z m -0.082,2.767 -4.194,3.621 a 1.017,1.017 0 0 0 -0.115,1.42 l 3.584,4.28 c 0.354,0.423 1.088,0.804 1.638,0.85 l 7.687,0.642 c 0.549,0.046 1.017,-0.269 1.029,-0.704 0.01,-0.264 0.014,-0.527 0.014,-0.788 0,-3.247 -0.578,-6.068 -1.6,-8.489 -0.214,-0.509 -0.859,-0.948 -1.408,-0.994 l -4.879,-0.407 c -0.553,-0.048 -1.338,0.208 -1.756,0.569 z m 8.526,11.847 -7.369,-0.615 c -0.551,-0.046 -1.299,0.246 -1.673,0.653 L 55.1,56.539 c -0.373,0.406 -0.431,1.109 -0.127,1.57 l 3.521,5.351 c 0.304,0.461 0.996,0.872 1.546,0.918 l 4.89,0.408 c 0.551,0.046 1.188,-0.322 1.411,-0.827 1.571,-3.564 2.649,-7.43 3.087,-11.161 a 0.975,0.975 0 0 0 -0.895,-1.079 z m -4.14,14.163 -4.496,-0.377 c -0.549,-0.046 -1.334,0.209 -1.754,0.569 l -3.52,3.031 a 1.013,1.013 0 0 0 -0.115,1.418 l 3.104,3.697 c 0.354,0.422 0.695,0.77 0.76,0.774 0.065,0.004 0.462,-0.274 0.867,-0.647 2.171,-1.99 4.097,-4.586 5.685,-7.498 0.264,-0.486 0.017,-0.921 -0.531,-0.967 z m -19.017,3.223 -3.519,-3.031 c -0.418,-0.36 -1.204,-0.615 -1.754,-0.569 l -4.496,0.377 c -0.55,0.046 -0.794,0.481 -0.529,0.968 1.588,2.912 3.513,5.508 5.682,7.498 0.407,0.373 0.806,0.654 0.87,0.648 0.064,-0.006 0.404,-0.354 0.759,-0.775 l 3.102,-3.697 a 1.015,1.015 0 0 0 -0.115,-1.419 z m 7.17,-12.373 c 0.554,0 1.304,-0.33 1.677,-0.736 l 4.258,-4.638 a 1.17,1.17 0 0 0 0.035,-1.502 L 54.69,45.289 c -0.354,-0.423 -1.088,-0.767 -1.642,-0.767 h -6.096 c -0.552,0 -1.288,0.343 -1.642,0.767 l -3.823,4.567 a 1.171,1.171 0 0 0 0.034,1.502 l 4.258,4.638 c 0.374,0.406 1.124,0.736 1.676,0.736 z m -9.918,8.663 3.48,2.996 c 0.418,0.36 1.206,0.652 1.758,0.652 h 4.268 c 0.554,0 1.339,-0.292 1.759,-0.652 l 3.479,-2.996 a 1.165,1.165 0 0 0 0.208,-1.486 l -3.515,-5.34 C 53.76,58.108 53.067,57.733 52.514,57.733 h -5.029 c -0.552,0 -1.246,0.375 -1.55,0.836 l -3.515,5.34 a 1.168,1.168 0 0 0 0.208,1.486 z m -2.669,-1.017 c 0.55,-0.046 1.243,-0.457 1.546,-0.918 l 3.521,-5.351 C 45.33,57.648 45.273,56.945 44.9,56.539 L 40.508,51.757 C 40.134,51.35 39.385,51.058 38.835,51.104 l -7.369,0.615 a 0.976,0.976 0 0 0 -0.896,1.079 c 0.437,3.731 1.515,7.599 3.087,11.161 0.223,0.506 0.861,0.873 1.412,0.827 z m 13.467,6.431 c -0.354,-0.422 -1.09,-0.766 -1.643,-0.766 h -3.566 c -0.552,0 -1.288,0.344 -1.643,0.766 l -3.487,4.156 c -0.355,0.424 -0.283,1.032 0.182,1.331 2.1,1.353 4.366,2.134 6.731,2.134 2.365,0 4.632,-0.781 6.73,-2.134 0.465,-0.299 0.537,-0.907 0.183,-1.331 z m -12.503,-31.48 4.102,3.54 c 0.418,0.361 1.205,0.653 1.757,0.653 h 6.436 c 0.554,0 1.339,-0.292 1.757,-0.653 l 4.104,-3.54 c 0.418,-0.361 0.531,-1.041 0.256,-1.519 l -3.746,-6.465 c -0.275,-0.478 -0.938,-0.958 -1.482,-1.049 a 24.934,24.934 0 0 0 -8.209,0.001 c -0.545,0.091 -1.207,0.571 -1.484,1.049 l -3.746,6.465 c -0.278,0.478 -0.164,1.157 0.255,1.518 z m -9.526,11.355 7.685,-0.642 c 0.55,-0.046 1.284,-0.427 1.639,-0.85 l 3.583,-4.28 a 1.019,1.019 0 0 0 -0.115,-1.42 L 39.993,39.871 C 39.575,39.51 38.79,39.255 38.24,39.301 l -4.877,0.407 c -0.55,0.046 -1.196,0.485 -1.41,0.994 -1.021,2.421 -1.6,5.242 -1.6,8.489 0,0.261 0.005,0.524 0.014,0.788 0.013,0.437 0.48,0.75 1.03,0.705 z m 2.662,-12.267 4.354,-0.364 c 0.55,-0.046 1.221,-0.471 1.498,-0.949 l 3.148,-5.435 c 0.277,-0.478 0.068,-0.749 -0.457,-0.577 -3.699,1.209 -6.83,3.397 -9.001,6.567 -0.311,0.456 -0.092,0.805 0.458,0.758 z m -5.789,0.729 c 0.27,-0.65 0.7,-1.26 1.24,-1.78 0.11,-0.69 0.38,-1.37 0.8,-1.97 1.13,-1.66 2.5,-3.13 4.07,-4.38 -1.22,-1.75 -2.75,-4.2 -4.6,-4.89 -2.24,-0.84 -5.89,0.69 -9.11,1.68 -6.47,2 -10.94,8.27 -13.4,13.97 -2.62,5.87 -2.43,10.32 -2.04,9.89 -0.08,-0.17 2.56,-1.54 3.71,-3.35 2.77,-4.35 6.54,-11.24 12.56,-9.86 2.44,0.04 4.59,0.67 6.48,1.43 0.09,-0.25 0.19,-0.5 0.29,-0.74 z m 64.46,2.63 c -2.461,-5.7 -6.932,-11.97 -13.4,-13.97 -3.221,-0.99 -6.87,-2.52 -9.109,-1.68 -1.851,0.69 -3.381,3.15 -4.591,4.9 a 20.145,20.145 0 0 1 4.07,4.38 c 0.409,0.59 0.68,1.271 0.79,1.96 0.539,0.52 0.97,1.14 1.24,1.8 0.1,0.24 0.199,0.48 0.278,0.72 1.9,-0.75 4.05,-1.39 6.49,-1.43 6.021,-1.38 9.79,5.51 12.56,9.86 1.15,1.81 3.791,3.18 3.711,3.35 0.391,0.43 0.581,-4.02 -2.039,-9.89 z m -59.64,29.54 c -2.37,1.068 -4.62,2.75 -6.16,5.18 -1.82,2.729 -4.61,5.59 -4.38,8.439 0.14,1.721 2.06,1.801 3.13,3.229 1.31,1.739 1.96,4.62 2.82,5.37 1.74,1.52 3.06,-5.98 7.63,-12.92 a 24.096,24.096 0 0 1 2.28,-3 c -0.12,-0.102 -0.24,-0.211 -0.36,-0.32 -1.79,-1.648 -3.46,-3.648 -4.96,-5.978 z m 33.81,0.02 c -1.5,2.32 -3.16,4.32 -4.961,5.96 -0.129,0.12 -0.25,0.22 -0.369,0.32 0.779,0.88 1.56,1.88 2.3,3.03 4.569,6.938 5.899,14.438 7.63,12.92 0.859,-0.75 1.51,-3.642 2.82,-5.371 1.068,-1.439 2.988,-1.521 3.13,-3.239 0.229,-2.84 -2.562,-5.71 -4.38,-8.431 -1.541,-2.429 -3.791,-4.119 -6.17,-5.189 z"
       id="path4"
       style="fill:#9bff16;fill-opacity:1" />
    <path
       d="m 67.561,68.286 c 0.279,-0.521 0.42,-1.091 0.449,-1.649 0.45,-0.41 0.83,-0.9 1.08,-1.471 1.7,-3.859 2.852,-8.02 3.32,-12.02 a 3.929,3.929 0 0 0 -0.15,-1.602 c 0.221,-0.45 0.36,-0.94 0.37,-1.47 0.011,-0.29 0.021,-0.59 0.021,-0.88 0,-3.52 -0.619,-6.77 -1.84,-9.65 a 4.423,4.423 0 0 0 -1.279,-1.69 c -0.03,-0.65 -0.25,-1.3 -0.66,-1.89 -2.471,-3.61 -6.109,-6.28 -10.54,-7.73 -0.41,-0.13 -0.819,-0.2 -1.21,-0.2 -0.221,0 -0.43,0.03 -0.63,0.07 -0.07,-0.04 -0.13,-0.08 -0.2,-0.12 a 4.923,4.923 0 0 0 -1.689,-0.65 28.458,28.458 0 0 0 -4.601,-0.38 c -1.53,0 -3.08,0.13 -4.6,0.38 -0.58,0.1 -1.16,0.33 -1.69,0.65 -0.07,0.04 -0.13,0.08 -0.2,0.12 -0.2,-0.04 -0.41,-0.07 -0.63,-0.07 -0.39,0 -0.8,0.07 -1.21,0.21 -4.43,1.44 -8.07,4.11 -10.54,7.72 -0.41,0.59 -0.63,1.24 -0.66,1.89 a 4.44,4.44 0 0 0 -1.28,1.68 c -1.22,2.89 -1.84,6.14 -1.84,9.66 0,0.29 0.01,0.59 0.02,0.88 0.01,0.529 0.15,1.02 0.37,1.47 -0.16,0.52 -0.21,1.061 -0.15,1.602 0.47,4 1.62,8.158 3.32,12.02 0.25,0.57 0.63,1.061 1.08,1.471 0.03,0.561 0.17,1.129 0.45,1.649 1.82,3.319 3.93,6.11 6.29,8.271 0.72,0.659 1.31,1.061 1.88,1.26 0.28,0.391 0.62,0.74 1.03,1 2.688,1.729 8.358,3.609 8.358,3.609 0,0 5.67,-1.88 8.359,-3.609 0.41,-0.26 0.75,-0.609 1.029,-0.989 0.58,-0.21 1.16,-0.61 1.881,-1.271 2.361,-2.161 4.471,-4.952 6.292,-8.271 z m -7.651,6.8 c -0.5,0.471 -0.9,0.75 -1.189,0.85 l -0.591,0.211 -0.36,0.5 a 1.704,1.704 0 0 1 -0.5,0.49 c -2.358,1.521 -4.81,2.289 -7.27,2.289 -2.46,0 -4.91,-0.77 -7.27,-2.289 -0.18,-0.109 -0.34,-0.279 -0.5,-0.49 l -0.36,-0.5 -0.58,-0.211 c -0.3,-0.108 -0.7,-0.379 -1.2,-0.85 -2.2,-2.02 -4.18,-4.63 -5.89,-7.76 -0.13,-0.23 -0.2,-0.5 -0.21,-0.78 l -0.04,-0.84 -0.63,-0.56 c -0.26,-0.23 -0.45,-0.5 -0.58,-0.78 -1.62,-3.69 -2.72,-7.65 -3.16,-11.45 -0.03,-0.26 -0.01,-0.529 0.07,-0.79 l 0.23,-0.76 -0.35,-0.7 c -0.1,-0.21 -0.16,-0.43 -0.16,-0.65 -0.01,-0.28 -0.02,-0.55 -0.02,-0.82 0,-3.25 0.57,-6.24 1.68,-8.88 0.14,-0.33 0.39,-0.65 0.72,-0.93 l 0.66,-0.56 0.05,-0.86 c 0.02,-0.29 0.13,-0.6 0.32,-0.87 2.22,-3.24 5.51,-5.64 9.51,-6.95 0.21,-0.07 0.41,-0.11 0.59,-0.11 0.1,0 0.18,0.02 0.27,0.04 l 0.25,0.04 0.54,0.1 0.66,-0.43 c 0.38,-0.25 0.78,-0.42 1.13,-0.48 1.41,-0.23 2.84,-0.35 4.27,-0.35 1.42,0 2.859,0.12 4.27,0.35 0.352,0.06 0.75,0.23 1.131,0.48 l 0.66,0.43 0.539,-0.1 0.25,-0.04 c 0.08,-0.02 0.17,-0.04 0.271,-0.04 0.18,0 0.38,0.04 0.59,0.11 4,1.31 7.29,3.71 9.51,6.95 0.19,0.28 0.301,0.57 0.32,0.88 l 0.05,0.86 0.66,0.55 c 0.33,0.28 0.58,0.6 0.72,0.93 1.11,2.64 1.682,5.63 1.682,8.88 0,0.27 -0.012,0.54 -0.021,0.82 0,0.22 -0.061,0.44 -0.16,0.65 l -0.35,0.71 0.229,0.75 c 0.08,0.261 0.102,0.53 0.07,0.79 -0.439,3.8 -1.54,7.76 -3.16,11.45 -0.13,0.28 -0.318,0.55 -0.58,0.78 l -0.63,0.56 -0.04,0.83 c -0.01,0.29 -0.08,0.56 -0.21,0.8 -1.711,3.12 -3.692,5.73 -5.891,7.75 z M 43.44,24.236 c 0.19,0.85 0.28,1.72 0.29,2.6 0.48,-0.23 1,-0.4 1.5,-0.49 1.59,-0.26 3.2,-0.39 4.77,-0.39 1.57,0 3.18,0.13 4.76,0.39 0.5,0.09 1.021,0.26 1.51,0.49 0.012,-0.87 0.11,-1.74 0.291,-2.6 1.399,-1.13 2.26,-2.72 2.26,-4.7 0,-1.58 -0.539,-3.31 -1.471,-4.87 -0.658,-5.19 -7.22,-8.43 -7.22,-8.43 0,0 -6.11,3.02 -7.14,7.88 -1.13,1.7 -1.81,3.66 -1.81,5.42 0,1.98 0.86,3.57 2.26,4.7 z"
       id="path5"
       style="fill:#9bff16;fill-opacity:1" />
  </g>
  <!---->
</svg>
