<svg data-v-423bf9ae="" xmlns="http://www.w3.org/2000/svg" viewBox="0 0 347.06608438538905 60" class="font"><!----><!----><!----><g data-v-423bf9ae="" id="1e6a06ce-281d-4fab-8e02-c74c37a0dbfa" fill="black" transform="matrix(3.705991230437749,0,0,3.705991230437749,-3.1130321614574825,3.594811837972454)"><path d="M9.66 1.05L6.26 1.05C6.26 1.05 6.33 3.42 6.36 5.08L4.09 5.08C4.13 3.40 4.24 1.05 4.24 1.05L0.84 1.05C0.84 1.05 0.94 4.42 0.94 5.95C0.94 8.06 0.88 10.79 0.88 10.79L4.12 10.79C4.12 9.38 4.09 8.02 4.07 6.87L6.36 6.87C6.34 8.78 6.30 10.79 6.30 10.79L9.53 10.79C9.53 9.00 9.49 7.29 9.49 5.99C9.49 4.45 9.66 1.05 9.66 1.05ZM15.65 2.95C12.81 2.95 11.06 4.48 11.06 6.97C11.06 9.42 12.81 11.05 15.65 11.05C18.52 11.05 20.24 9.42 20.24 6.97C20.24 4.48 18.52 2.95 15.65 2.95ZM14.34 6.92C14.34 5.71 14.64 5.00 15.58 5.00C16.63 5.00 16.95 6.02 16.95 7.04C16.95 8.05 16.72 8.95 15.67 8.95C14.73 8.95 14.34 8.11 14.34 6.92ZM27.06 10.79L30.46 10.79C30.44 9.90 30.37 8.09 30.37 5.74C30.37 4.07 29.51 2.95 27.66 2.95C26.19 2.95 25.31 3.61 24.95 4.51L24.99 3.21L21.73 3.21C21.74 3.82 21.74 4.42 21.74 4.94C21.74 7.73 21.64 10.79 21.64 10.79L25.00 10.79C24.96 9.87 24.91 8.18 24.91 7.01C24.91 6.01 25.07 5.04 25.98 5.04C26.88 5.04 27.13 5.82 27.13 7.01C27.13 8.22 27.08 9.91 27.06 10.79ZM40.63 3.21L37.24 3.21C37.28 4.13 37.35 5.82 37.35 6.99C37.35 7.99 37.24 8.96 36.40 8.96C35.55 8.96 35.38 8.19 35.38 6.99C35.38 5.78 35.43 4.09 35.45 3.21L32.16 3.21C32.20 4.10 32.14 6.69 32.14 8.02C32.14 10.01 33.14 11.05 34.75 11.05C36.23 11.05 36.97 10.39 37.32 9.49L37.45 10.79L40.68 10.79C40.59 10.08 40.53 9.58 40.53 9.06C40.53 6.27 40.63 3.21 40.63 3.21ZM52.68 5.50C53.16 5.03 53.66 4.35 53.66 3.63C53.66 1.65 52.44 1.05 49.15 1.05L45.82 1.05C45.82 1.05 45.92 4.42 45.92 5.95C45.92 8.06 45.86 10.79 45.86 10.79L49.11 10.79C52.36 10.79 54.52 10.00 54.52 7.76C54.52 6.41 53.75 5.80 52.68 5.50ZM50.86 3.95C50.86 4.40 50.71 4.86 50.48 5.26C49.84 5.26 49.07 5.35 49.07 5.35C49.07 5.35 49.07 3.86 49.10 3.08C50.12 3.08 50.86 3.11 50.86 3.95ZM49.08 8.83C49.08 8.09 49.07 7.53 49.07 6.89C50.30 6.78 51.24 6.83 51.24 7.85C51.24 8.90 49.98 8.95 49.08 8.83ZM64.26 3.21L60.87 3.21C60.91 4.13 60.98 5.82 60.98 6.99C60.98 7.99 60.87 8.96 60.03 8.96C59.18 8.96 59.01 8.19 59.01 6.99C59.01 5.78 59.07 4.09 59.08 3.21L55.79 3.21C55.83 4.10 55.78 6.69 55.78 8.02C55.78 10.01 56.77 11.05 58.38 11.05C59.86 11.05 60.61 10.39 60.96 9.49L61.08 10.79L64.32 10.79C64.22 10.08 64.16 9.58 64.16 9.06C64.16 6.27 64.26 3.21 64.26 3.21ZM65.67 7.01C65.67 9.51 67.09 11.05 69.16 11.05C70.59 11.05 71.36 10.09 71.61 9.32C71.61 9.55 71.65 10.54 71.65 10.79L75.00 10.79C75.00 10.79 74.77 9.52 74.75 7.88C74.73 6.97 74.73 5.94 74.73 4.94C74.73 2.79 74.87-0.97 74.87-0.97C73.30-0.88 71.32-0.97 71.32-0.97C71.32-0.97 71.48 2.39 71.53 4.51C71.16 3.61 70.29 2.95 69.12 2.95C67.05 2.95 65.67 4.54 65.67 7.01ZM69.05 7.01C69.05 5.82 69.40 5.04 70.34 5.04C71.39 5.04 71.74 6.01 71.74 7.01C71.74 8.04 71.39 8.99 70.34 8.99C69.40 8.99 69.05 8.22 69.05 7.01ZM76.26 7.01C76.26 9.51 77.67 11.05 79.74 11.05C81.17 11.05 81.94 10.09 82.19 9.32C82.19 9.55 82.24 10.54 82.24 10.79L85.58 10.79C85.58 10.79 85.36 9.52 85.33 7.88C85.32 6.97 85.32 5.94 85.32 4.94C85.32 2.79 85.46-0.97 85.46-0.97C83.89-0.88 81.90-0.97 81.90-0.97C81.90-0.97 82.07 2.39 82.11 4.51C81.75 3.61 80.88 2.95 79.70 2.95C77.63 2.95 76.26 4.54 76.26 7.01ZM79.63 7.01C79.63 5.82 79.98 5.04 80.92 5.04C81.97 5.04 82.32 6.01 82.32 7.01C82.32 8.04 81.97 8.99 80.92 8.99C79.98 8.99 79.63 8.22 79.63 7.01ZM92.09 3.21C92.30 5.82 92.05 7.22 91.62 8.40C91.62 3.75 86.70 2.95 86.70 2.95L86.00 6.27C86.00 6.27 89.10 6.87 89.10 9.56C89.10 12.15 86.81 13.24 83.41 13.24L84.13 15.22C90.01 15.22 94.49 10.14 94.49 3.21Z"></path></g><!----><!----></svg>